<?xml version="1.0" standalone="no"?>
<!DOCTYPE svg PUBLIC "-//W3C//DTD SVG 20010904//EN"
 "http://www.w3.org/TR/2001/REC-SVG-20010904/DTD/svg10.dtd">
<svg version="1.0" xmlns="http://www.w3.org/2000/svg"
 width="192.000000pt" height="192.000000pt" viewBox="0 0 192.000000 192.000000"
 preserveAspectRatio="xMidYMid meet">

<g transform="translate(0.000000,192.000000) scale(0.100000,-0.100000)"
fill="#000000" stroke="none">
<path d="M502 1177 c-148 -149 -175 -180 -187 -220 -15 -50 -11 -94 11 -137
22 -44 550 -564 591 -582 50 -23 98 -22 148 2 25 12 139 119 311 292 291 293
301 306 291 394 -6 61 -34 96 -209 271 l-153 153 3 -69 c2 -38 -1 -86 -7 -106
-10 -37 -10 -37 10 -19 20 18 22 16 140 -102 96 -97 119 -126 119 -149 0 -23
-22 -51 -110 -139 l-109 -111 -113 113 -113 112 -38 -37 -37 -38 112 -112 113
-113 -125 -125 c-69 -69 -135 -128 -146 -131 -12 -3 -35 1 -50 9 -16 9 -145
132 -286 274 -323 324 -312 284 -129 466 l129 128 0 64 c0 36 3 69 7 75 3 5 5
10 3 10 -2 0 -81 -78 -176 -173z"/>
<path d="M850 1146 c0 -2 8 -10 18 -17 15 -13 16 -12 3 4 -13 16 -21 21 -21
13z"/>
</g>
</svg>
